<svg id="visual" viewBox="0 0 960 540" width="960" height="540" xmlns="http://www.w3.org/2000/svg" xmlns:xlink="http://www.w3.org/1999/xlink" version="1.1"><rect x="0" y="0" width="960" height="540" fill="#001220"></rect><defs><linearGradient id="grad1_0" x1="43.8%" y1="0%" x2="100%" y2="100%"><stop offset="14.444444444444446%" stop-color="#001220" stop-opacity="1"></stop><stop offset="85.55555555555554%" stop-color="#001220" stop-opacity="1"></stop></linearGradient></defs><defs><linearGradient id="grad2_0" x1="0%" y1="0%" x2="56.3%" y2="100%"><stop offset="14.444444444444446%" stop-color="#001220" stop-opacity="1"></stop><stop offset="85.55555555555554%" stop-color="#001220" stop-opacity="1"></stop></linearGradient></defs><g transform="translate(960, 0)"><path d="M0 486C-68.9 484.9 -137.7 483.7 -186 449C-234.2 414.3 -261.8 346 -295.6 295.6C-329.3 245.2 -369.1 212.7 -401.9 166.5C-434.6 120.2 -460.3 60.1 -486 0L0 0Z" fill="#FBAE3C"></path></g><g transform="translate(0, 540)"><path d="M0 -486C76.4 -488.2 152.8 -490.4 181.8 -438.8C210.8 -387.3 192.4 -282 239 -239C285.6 -196 397 -215.4 449 -186C501 -156.5 493.5 -78.3 486 0L0 0Z" fill="#FBAE3C"></path></g></svg>